<svg width="1306.81513671875px" height="185.62252197265624px" xmlns="http://www.w3.org/2000/svg" viewBox="-403.407568359375 -17.811260986328122 1306.81513671875 185.62252197265624" style="background: rgb(36, 112, 36);" preserveAspectRatio="xMidYMid"><defs><filter id="editing-cake" x="-100%" y="-100%" width="300%" height="300%"><feFlood flood-color="#000000" result="flood-shadow"></feFlood><feFlood flood-color="#1f2100"></feFlood><feComposite operator="in" in2="SourceAlpha"></feComposite><feConvolveMatrix order="7,10" divisor="1" result="conv" kernelMatrix="0 0 0 1 0 0 0 0 0 1 0 1 0 0 0 0 1 0 1 0 0 0 1 0 0 0 1 0 0 1 0 0 0 1 0 0 1 0 0 0 1 0 1 0 0 0 0 0 1 1 0 0 0 0 0 1 0 1 1 0 1 1 0 0 0 0 1 0 0 0 "></feConvolveMatrix><feGaussianBlur stdDeviation="0.5"></feGaussianBlur><feOffset dy="4" result="offset"></feOffset><feComposite operator="in" in="flood-shadow" in2="offset"></feComposite><feGaussianBlur stdDeviation="4"></feGaussianBlur><feComponentTransfer><feFuncA type="linear" slope="0.7" intercept="-0.2"></feFuncA></feComponentTransfer><feOffset dy="4" result="shadow"></feOffset><feGaussianBlur in="SourceGraphic" stdDeviation="0.5"></feGaussianBlur><feOffset dy="0" result="x0"></feOffset><feGaussianBlur in="SourceGraphic" stdDeviation="1"></feGaussianBlur><feComponentTransfer><feFuncA type="linear" slope="0.8" intercept="-.01"></feFuncA></feComponentTransfer><feOffset dy="1" result="x1"></feOffset><feGaussianBlur in="SourceGraphic" stdDeviation="2"></feGaussianBlur><feComponentTransfer><feFuncA type="linear" slope="0.7" intercept="-.01"></feFuncA></feComponentTransfer><feOffset dy="2" result="x2"></feOffset><feGaussianBlur in="SourceGraphic" stdDeviation="3"></feGaussianBlur><feComponentTransfer><feFuncA type="linear" slope="0.6" intercept="-.01"></feFuncA></feComponentTransfer><feOffset dy="3" result="x3"></feOffset><feMerge><feMergeNode in="shadow"></feMergeNode><feMergeNode in="offset"></feMergeNode><feMergeNode in="x3"></feMergeNode><feMergeNode in="x2"></feMergeNode><feMergeNode in="x1"></feMergeNode><feMergeNode in="x0"></feMergeNode></feMerge></filter></defs><g filter="url(#editing-cake)"><g transform="translate(-222.52500009536743, 115.30999755859375)"><path d="M76.33-2.44L76.33 0L54.98 0L33.64-33.18L32.71-33.18L32.71-6.73L40.72-6.73L40.72 0L2.90 0L2.90-6.73L13.22-6.73L13.22-64.61L2.90-64.61L2.90-71.34L32.71-71.34L32.71-40.25L54.64-64.61L45.82-64.61L45.82-71.34L75.63-71.34L75.63-64.61L63.92-64.61L47.44-46.28L76.33-2.44ZM77.49-65.54L77.49-71.34L84.33-71.34L102.66-74.70L102.66-5.80L102.66-5.80Q107.18-5.80 108.40-8.12L108.40-8.12L108.40-8.12Q109.62-10.44 109.62-16.01L109.62-16.01L115.54-16.01L115.54-16.01Q115.54-12.41 115.19-9.40L115.19-9.40L115.19-9.40Q114.84-6.38 113.16-4.18L113.16-4.18L113.16-4.18Q111.48-1.97 108.00-0.75L108.00-0.75L108.00-0.75Q104.52 0.46 98.25 0.46L98.25 0.46L98.25 0.46Q93.96 0.46 91.23-0.81L91.23-0.81L91.23-0.81Q88.51-2.09 87-3.89L87-3.89L87-3.89Q85.49-5.68 84.91-7.60L84.91-7.60L84.91-7.60Q84.33-9.51 84.33-10.79L84.33-10.79L84.33-65.54L77.49-65.54ZM139.78-25.87L139.78-25.87L139.78-25.87Q139.78-21.34 140.07-17.46L140.07-17.46L140.07-17.46Q140.36-13.57 140.82-10.79L140.82-10.79L140.82-10.79Q141.29-7.42 141.87-4.76L141.87-4.76L141.87-4.76Q142.45-4.52 143.38-4.41L143.38-4.41L143.38-4.41Q144.88-4.06 147.78-4.06L147.78-4.06L147.78-4.06Q150.57-4.06 152.19-4.41L152.19-4.41L152.19-4.41Q153.12-4.52 153.70-4.76L153.70-4.76L153.70-4.76Q154.28-7.42 154.74-10.79L154.74-10.79L154.74-10.79Q155.09-13.57 155.44-17.46L155.44-17.46L155.44-17.46Q155.79-21.34 155.79-25.87L155.79-25.87L155.79-25.87Q155.79-30.39 155.44-34.22L155.44-34.22L155.44-34.22Q155.09-38.05 154.74-40.95L154.74-40.95L154.74-40.95Q154.28-44.20 153.70-46.98L153.70-46.98L153.70-46.98Q153.00-47.10 152.08-47.33L152.08-47.33L152.08-47.33Q151.26-47.44 150.16-47.56L150.16-47.56L150.16-47.56Q149.06-47.68 147.78-47.68L147.78-47.68L147.78-47.68Q146.28-47.68 145.23-47.56L145.23-47.56L145.23-47.56Q144.19-47.44 143.38-47.33L143.38-47.33L143.38-47.33Q142.45-47.10 141.87-46.98L141.87-46.98L141.87-46.98Q141.29-44.20 140.82-40.95L140.82-40.95L140.82-40.95Q140.36-38.05 140.07-34.22L140.07-34.22L140.07-34.22Q139.78-30.39 139.78-25.87ZM120.76-25.87L120.76-25.87L120.76-25.87Q120.76-33.29 122.15-38.45L122.15-38.45L122.15-38.45Q123.54-43.62 126.79-46.81L126.79-46.81L126.79-46.81Q130.04-50.00 135.14-51.45L135.14-51.45L135.14-51.45Q140.24-52.90 147.78-52.90L147.78-52.90L147.78-52.90Q155.21-52.90 160.37-51.45L160.37-51.45L160.37-51.45Q165.53-50.00 168.78-46.81L168.78-46.81L168.78-46.81Q172.03-43.62 173.42-38.45L173.42-38.45L173.42-38.45Q174.81-33.29 174.81-25.87L174.81-25.87L174.81-25.87Q174.81-18.44 173.42-13.28L173.42-13.28L173.42-13.28Q172.03-8.12 168.78-4.93L168.78-4.93L168.78-4.93Q165.53-1.74 160.37-0.29L160.37-0.29L160.37-0.29Q155.21 1.16 147.78 1.16L147.78 1.16L147.78 1.16Q140.24 1.16 135.14-0.29L135.14-0.29L135.14-0.29Q130.04-1.74 126.79-4.93L126.79-4.93L126.79-4.93Q123.54-8.12 122.15-13.28L122.15-13.28L122.15-13.28Q120.76-18.44 120.76-25.87ZM182.35-44.20L182.35-50.00L189.20-50.00L206.71-53.36L206.71-45.24L206.71-45.24Q206.94-45.59 207.99-46.86L207.99-46.86L207.99-46.86Q209.03-48.14 211.12-49.47L211.12-49.47L211.12-49.47Q213.21-50.81 216.57-51.85L216.57-51.85L216.57-51.85Q219.94-52.90 224.81-52.90L224.81-52.90L224.81-52.90Q227.48-52.90 230.20-52.43L230.20-52.43L230.20-52.43Q232.93-51.97 235.19-50.75L235.19-50.75L235.19-50.75Q237.45-49.53 238.84-47.44L238.84-47.44L238.84-47.44Q240.24-45.36 240.24-41.99L240.24-41.99L240.24-5.92L247.08-5.92L247.08 0L221.91 0L221.91-45.70L221.91-45.70Q221.68-45.70 221.21-45.82L221.21-45.82L221.21-45.82Q220.28-46.05 218.66-46.05L218.66-46.05L218.66-46.05Q216.22-46.05 214.31-45.07L214.31-45.07L214.31-45.07Q212.40-44.08 211.00-42.80L211.00-42.80L211.00-42.80Q209.61-41.53 208.74-40.19L208.74-40.19L208.74-40.19Q207.87-38.86 207.52-38.16L207.52-38.16L207.52-5.92L214.37-5.92L214.37 0L182.35 0L182.35-5.92L189.20-5.92L189.20-44.20L182.35-44.20ZM281.07-65.54L281.07-71.34L287.91-71.34L306.24-74.70L306.24-5.80L307.75-5.80L307.75-5.80Q308.79-5.80 309.84-5.92L309.84-5.92L312.39-6.15L312.39-0.58L312.39-0.58Q310.30-0.23 308.33 0L308.33 0L308.33 0Q306.70 0.23 304.85 0.35L304.85 0.35L304.85 0.35Q302.99 0.46 301.83 0.46L301.83 0.46L301.83 0.46Q296.15 0.46 293.25-1.62L293.25-1.62L293.25-1.62Q290.35-3.71 289.07-6.15L289.07-6.15L289.07-6.15Q285.71-2.78 281.47-0.93L281.47-0.93L281.47-0.93Q277.24 0.93 272.60 0.93L272.60 0.93L272.60 0.93Q267.84 0.93 264.13-0.52L264.13-0.52L264.13-0.52Q260.42-1.97 257.93-5.16L257.93-5.16L257.93-5.16Q255.43-8.35 254.16-13.51L254.16-13.51L254.16-13.51Q252.88-18.68 252.88-25.98L252.88-25.98L252.88-25.98Q252.88-33.41 254.27-38.57L254.27-38.57L254.27-38.57Q255.66-43.73 258.91-46.92L258.91-46.92L258.91-46.92Q262.16-50.11 267.26-51.50L267.26-51.50L267.26-51.50Q272.37-52.90 279.91-52.90L279.91-52.90L279.91-52.90Q282.00-52.90 283.97-52.66L283.97-52.66L287.91-52.20L287.91-65.54L281.07-65.54ZM273.99-5.34L273.99-5.34L273.99-5.34Q277.82-5.34 281.47-7.77L281.47-7.77L281.47-7.77Q285.13-10.21 287.91-13.92L287.91-13.92L287.91-46.52L287.91-46.52Q285.94-47.10 283.79-47.39L283.79-47.39L283.79-47.39Q281.65-47.68 279.91-47.68L279.91-47.68L279.91-47.68Q278.40-47.68 277.36-47.56L277.36-47.56L277.36-47.56Q276.31-47.44 275.50-47.33L275.50-47.33L275.50-47.33Q274.57-47.10 273.99-46.98L273.99-46.98L273.99-46.98Q273.41-44.20 272.95-40.95L272.95-40.95L272.95-40.95Q272.48-38.16 272.19-34.34L272.19-34.34L272.19-34.34Q271.90-30.51 271.90-25.98L271.90-25.98L271.90-25.98Q271.90-20.42 272.19-16.53L272.19-16.53L272.19-16.53Q272.48-12.64 272.95-10.09L272.95-10.09L272.95-10.09Q273.41-7.08 273.99-5.34ZM318.19-45.36L318.19-51.16L325.03-51.16L343.36-53.94L343.36-5.92L350.20-5.92L350.20 0L318.19 0L318.19-5.92L325.03-5.92L325.03-45.36L318.19-45.36ZM325.03-69.25L325.03-69.25L325.03-69.25Q325.03-74.12 327.12-76.50L327.12-76.50L327.12-76.50Q329.21-78.88 334.20-78.88L334.20-78.88L334.20-78.88Q339.42-78.88 341.39-76.50L341.39-76.50L341.39-76.50Q343.36-74.12 343.36-69.25L343.36-69.25L343.36-69.25Q343.36-64.26 341.21-62.00L341.21-62.00L341.21-62.00Q339.07-59.74 334.20-59.74L334.20-59.74L334.20-59.74Q329.21-59.74 327.12-62.00L327.12-62.00L327.12-62.00Q325.03-64.26 325.03-69.25ZM395.21-6.26L385.93-27.61L380.60-27.61L380.60-5.92L387.44-5.92L387.44 0L355.42 0L355.42-5.92L362.27-5.92L362.27-65.54L355.42-65.54L355.42-71.34L362.27-71.34L380.60-74.70L380.60-33.87L388.60-33.87L388.60-33.87Q394.05-33.87 396.31-35.21L396.31-35.21L396.31-35.21Q398.58-36.54 398.58-40.83L398.58-40.83L398.58-46.17L389.30-46.17L389.30-52.08L416.90-52.08L416.90-46.17L405.88-46.17L405.88-39.32L405.88-39.32Q405.88-34.57 403.33-31.67L403.33-31.67L414.70-5.80L416.09-5.80L416.09-5.80Q417.02-5.80 417.95-5.92L417.95-5.92L417.95-5.92Q418.99-6.03 420.15-6.15L420.15-6.15L420.15-0.58L420.15-0.58Q418.76-0.23 416.79 0L416.79 0L416.79 0Q415.16 0.23 412.61 0.35L412.61 0.35L412.61 0.35Q410.06 0.46 406.58 0.46L406.58 0.46L406.58 0.46Q403.91 0.46 402.06 0L402.06 0L402.06 0Q400.20-0.46 398.92-1.33L398.92-1.33L398.92-1.33Q397.65-2.20 396.78-3.42L396.78-3.42L396.78-3.42Q395.91-4.64 395.21-6.26L395.21-6.26ZM448.80-52.90L448.80-52.90L448.80-52.90Q455.18-52.90 459.36-51.68L459.36-51.68L459.36-51.68Q463.54-50.46 466.09-47.79L466.09-47.79L466.09-47.79Q468.64-45.12 469.68-40.77L469.68-40.77L469.68-40.77Q470.73-36.42 470.73-30.04L470.73-30.04L470.73-30.04Q470.73-28.07 470.61-26.62L470.61-26.62L470.61-26.62Q470.50-25.17 470.38-24.24L470.38-24.24L470.38-24.24Q470.26-23.08 470.15-22.50L470.15-22.50L441.50-22.50L441.50-22.50Q441.61-18.56 441.96-15.37L441.96-15.37L441.96-15.37Q442.31-12.18 442.66-9.86L442.66-9.86L442.66-9.86Q443.12-7.08 443.58-4.99L443.58-4.99L443.58-4.99Q443.93-4.76 444.63-4.64L444.63-4.64L444.63-4.64Q445.21-4.52 446.31-4.47L446.31-4.47L446.31-4.47Q447.41-4.41 449.15-4.41L449.15-4.41L449.15-4.41Q452.05-4.41 454.66-4.81L454.66-4.81L454.66-4.81Q457.27-5.22 459.24-6.15L459.24-6.15L459.24-6.15Q461.22-7.08 462.32-8.76L462.32-8.76L462.32-8.76Q463.42-10.44 463.42-12.88L463.42-12.88L469.68-12.88L469.68-12.88Q469.68-8.00 467.54-5.22L467.54-5.22L467.54-5.22Q465.39-2.44 462.20-0.99L462.20-0.99L462.20-0.99Q459.01 0.46 455.30 0.81L455.30 0.81L455.30 0.81Q451.59 1.16 448.34 1.16L448.34 1.16L448.34 1.16Q441.26 1.16 436.33-0.29L436.33-0.29L436.33-0.29Q431.40-1.74 428.33-4.93L428.33-4.93L428.33-4.93Q425.26-8.12 423.86-13.28L423.86-13.28L423.86-13.28Q422.47-18.44 422.47-25.87L422.47-25.87L422.47-25.87Q422.47-33.29 423.69-38.45L423.69-38.45L423.69-38.45Q424.91-43.62 427.92-46.81L427.92-46.81L427.92-46.81Q430.94-50.00 435.99-51.45L435.99-51.45L435.99-51.45Q441.03-52.90 448.80-52.90ZM443.58-46.98L443.58-46.98L443.58-46.98Q443.00-44.43 442.54-41.41L442.54-41.41L442.54-41.41Q442.19-38.74 441.84-35.21L441.84-35.21L441.84-35.21Q441.50-31.67 441.50-27.49L441.50-27.49L452.75-27.49L452.75-27.49Q452.52-32.36 452.17-36.02L452.17-36.02L452.17-36.02Q451.82-39.67 451.36-42.11L451.36-42.11L451.36-42.11Q450.89-45.01 450.31-46.98L450.31-46.98L450.31-46.98Q449.96-47.10 449.50-47.33L449.50-47.33L449.50-47.33Q449.04-47.44 448.40-47.56L448.40-47.56L448.40-47.56Q447.76-47.68 446.95-47.68L446.95-47.68L446.95-47.68Q446.14-47.68 445.56-47.56L445.56-47.56L445.56-47.56Q444.98-47.44 444.51-47.33L444.51-47.33L444.51-47.33Q444.05-47.10 443.58-46.98ZM526.64-72.62L526.64-72.62L526.64-72.62Q530.35-72.62 533.43-72.09L533.43-72.09L533.43-72.09Q536.50-71.57 538.82-70.76L538.82-70.76L549.72-72.96L549.72-49.30L549.72-49.30Q541.37-49.53 536.27-54.06L536.27-54.06L536.27-54.06Q531.16-58.58 530.35-66.47L530.35-66.47L530.35-66.47Q528.03-66.93 524.90-66.93L524.90-66.93L524.90-66.93Q523.74-66.93 522.99-66.82L522.99-66.82L522.99-66.82Q522.23-66.70 521.65-66.58L521.65-66.58L520.49-66.35L520.49-66.35Q520.03-65.42 519.68-64.15L519.68-64.15L519.68-64.15Q519.45-63.10 519.22-61.65L519.22-61.65L519.22-61.65Q518.98-60.20 518.98-58.46L518.98-58.46L518.98-58.46Q518.98-52.32 521.71-49.42L521.71-49.42L521.71-49.42Q524.44-46.52 530.58-44.54L530.58-44.54L530.58-44.54Q534.18-43.27 538.01-41.35L538.01-41.35L538.01-41.35Q541.84-39.44 545.03-36.66L545.03-36.66L545.03-36.66Q548.22-33.87 550.25-30.10L550.25-30.10L550.25-30.10Q552.28-26.33 552.28-21.58L552.28-21.58L552.28-21.58Q552.28-9.51 544.85-3.89L544.85-3.89L544.85-3.89Q537.43 1.74 524.09 1.74L524.09 1.74L524.09 1.74Q518.40 1.74 515.04 1.10L515.04 1.10L515.04 1.10Q511.68 0.46 509.82-0.12L509.82-0.12L500.08 1.74L500.08-24.24L500.08-24.24Q504.60-24.13 508.08-22.56L508.08-22.56L508.08-22.56Q511.56-21.00 514.00-18.33L514.00-18.33L514.00-18.33Q516.43-15.66 517.82-12.06L517.82-12.06L517.82-12.06Q519.22-8.47 519.45-4.18L519.45-4.18L519.45-4.18Q520.38-4.06 521.19-4.06L521.19-4.06L523.16-4.06L523.16-4.06Q524.32-4.06 525.65-4.12L525.65-4.12L525.65-4.12Q526.99-4.18 528.15-4.29L528.15-4.29L528.15-4.29Q529.42-4.41 530.82-4.52L530.82-4.52L530.82-4.52Q531.16-5.34 531.51-6.61L531.51-6.61L531.51-6.61Q531.74-7.66 531.98-9.28L531.98-9.28L531.98-9.28Q532.21-10.90 532.21-13.22L532.21-13.22L532.21-13.22Q532.21-18.33 529.77-21.40L529.77-21.40L529.77-21.40Q527.34-24.48 523.62-26.68L523.62-26.68L523.62-26.68Q519.91-28.88 515.68-30.74L515.68-30.74L515.68-30.74Q511.44-32.60 507.73-35.15L507.73-35.15L507.73-35.15Q504.02-37.70 501.58-41.53L501.58-41.53L501.58-41.53Q499.15-45.36 499.15-51.50L499.15-51.50L499.15-51.50Q499.15-56.03 500.54-59.86L500.54-59.86L500.54-59.86Q501.93-63.68 505.12-66.53L505.12-66.53L505.12-66.53Q508.31-69.37 513.59-70.99L513.59-70.99L513.59-70.99Q518.87-72.62 526.64-72.62ZM580.58-25.87L580.58-25.87L580.58-25.87Q580.58-21.34 580.87-17.46L580.87-17.46L580.87-17.46Q581.16-13.57 581.62-10.79L581.62-10.79L581.62-10.79Q582.09-7.42 582.67-4.76L582.67-4.76L582.67-4.76Q583.25-4.52 584.18-4.41L584.18-4.41L584.18-4.41Q585.68-4.06 588.58-4.06L588.58-4.06L588.58-4.06Q591.37-4.06 592.99-4.41L592.99-4.41L592.99-4.41Q593.92-4.52 594.50-4.76L594.50-4.76L594.50-4.76Q595.08-7.42 595.54-10.79L595.54-10.79L595.54-10.79Q595.89-13.57 596.24-17.46L596.24-17.46L596.24-17.46Q596.59-21.34 596.59-25.87L596.59-25.87L596.59-25.87Q596.59-30.39 596.24-34.22L596.24-34.22L596.24-34.22Q595.89-38.05 595.54-40.95L595.54-40.95L595.54-40.95Q595.08-44.20 594.50-46.98L594.50-46.98L594.50-46.98Q593.80-47.10 592.88-47.33L592.88-47.33L592.88-47.33Q592.06-47.44 590.96-47.56L590.96-47.56L590.96-47.56Q589.86-47.68 588.58-47.68L588.58-47.68L588.58-47.68Q587.08-47.68 586.03-47.56L586.03-47.56L586.03-47.56Q584.99-47.44 584.18-47.33L584.18-47.33L584.18-47.33Q583.25-47.10 582.67-46.98L582.67-46.98L582.67-46.98Q582.09-44.20 581.62-40.95L581.62-40.95L581.62-40.95Q581.16-38.05 580.87-34.22L580.87-34.22L580.87-34.22Q580.58-30.39 580.58-25.87ZM561.56-25.87L561.56-25.87L561.56-25.87Q561.56-33.29 562.95-38.45L562.95-38.45L562.95-38.45Q564.34-43.62 567.59-46.81L567.59-46.81L567.59-46.81Q570.84-50.00 575.94-51.45L575.94-51.45L575.94-51.45Q581.04-52.90 588.58-52.90L588.58-52.90L588.58-52.90Q596.01-52.90 601.17-51.45L601.17-51.45L601.17-51.45Q606.33-50.00 609.58-46.81L609.58-46.81L609.58-46.81Q612.83-43.62 614.22-38.45L614.22-38.45L614.22-38.45Q615.61-33.29 615.61-25.87L615.61-25.87L615.61-25.87Q615.61-18.44 614.22-13.28L614.22-13.28L614.22-13.28Q612.83-8.12 609.58-4.93L609.58-4.93L609.58-4.93Q606.33-1.74 601.17-0.29L601.17-0.29L601.17-0.29Q596.01 1.16 588.58 1.16L588.58 1.16L588.58 1.16Q581.04 1.16 575.94-0.29L575.94-0.29L575.94-0.29Q570.84-1.74 567.59-4.93L567.59-4.93L567.59-4.93Q564.34-8.12 562.95-13.28L562.95-13.28L562.95-13.28Q561.56-18.44 561.56-25.87ZM620.83-65.54L620.83-71.34L627.68-71.34L646.00-74.70L646.00-5.80L646.00-5.80Q650.53-5.80 651.75-8.12L651.75-8.12L651.75-8.12Q652.96-10.44 652.96-16.01L652.96-16.01L658.88-16.01L658.88-16.01Q658.88-12.41 658.53-9.40L658.53-9.40L658.53-9.40Q658.18-6.38 656.50-4.18L656.50-4.18L656.50-4.18Q654.82-1.97 651.34-0.75L651.34-0.75L651.34-0.75Q647.86 0.46 641.60 0.46L641.60 0.46L641.60 0.46Q637.30 0.46 634.58-0.81L634.58-0.81L634.58-0.81Q631.85-2.09 630.34-3.89L630.34-3.89L630.34-3.89Q628.84-5.68 628.26-7.60L628.26-7.60L628.26-7.60Q627.68-9.51 627.68-10.79L627.68-10.79L627.68-65.54L620.83-65.54ZM663.52-45.36L663.52-51.16L670.36-51.16L688.69-53.94L688.69-5.92L695.54-5.92L695.54 0L663.52 0L663.52-5.92L670.36-5.92L670.36-45.36L663.52-45.36ZM670.36-69.25L670.36-69.25L670.36-69.25Q670.36-74.12 672.45-76.50L672.45-76.50L672.45-76.50Q674.54-78.88 679.53-78.88L679.53-78.88L679.53-78.88Q684.75-78.88 686.72-76.50L686.72-76.50L686.72-76.50Q688.69-74.12 688.69-69.25L688.69-69.25L688.69-69.25Q688.69-64.26 686.55-62.00L686.55-62.00L686.55-62.00Q684.40-59.74 679.53-59.74L679.53-59.74L679.53-59.74Q674.54-59.74 672.45-62.00L672.45-62.00L672.45-62.00Q670.36-64.26 670.36-69.25ZM705.40-10.79L705.40-57.42L723.72-62.41L723.72-52.08L737.64-52.08L737.64-46.28L723.72-46.28L723.72-5.80L726.16-5.80L726.16-5.80Q732.89-5.80 732.89-16.01L732.89-16.01L738.80-16.01L738.80-16.01Q738.80-12.30 738.40-9.28L738.40-9.28L738.40-9.28Q737.99-6.26 736.19-4.06L736.19-4.06L736.19-4.06Q734.40-1.86 730.86-0.70L730.86-0.70L730.86-0.70Q727.32 0.46 721.06 0.46L721.06 0.46L721.06 0.46Q716.76 0.46 713.75-0.52L713.75-0.52L713.75-0.52Q710.73-1.51 708.88-3.13L708.88-3.13L708.88-3.13Q707.02-4.76 706.21-6.73L706.21-6.73L706.21-6.73Q705.40-8.70 705.40-10.79L705.40-10.79ZM792.51-25.87L792.51-5.80L794.02-5.80L794.02-5.80Q795.06-5.80 796.11-5.92L796.11-5.92L798.66-6.15L798.66-0.58L798.66-0.58Q796.57-0.23 794.60 0L794.60 0L794.60 0Q792.98 0.23 791.12 0.35L791.12 0.35L791.12 0.35Q789.26 0.46 788.10 0.46L788.10 0.46L788.10 0.46Q782.42 0.46 779.52-1.62L779.52-1.62L779.52-1.62Q776.62-3.71 775.34-6.15L775.34-6.15L775.34-6.15Q772.79-2.90 769.49-0.99L769.49-0.99L769.49-0.99Q766.18 0.93 761.89 0.93L761.89 0.93L761.89 0.93Q754.00 0.93 750.17-2.03L750.17-2.03L750.17-2.03Q746.34-4.99 746.34-12.30L746.34-12.30L746.34-12.30Q746.34-14.85 746.40-17.17L746.40-17.17L746.40-17.17Q746.46-19.49 746.69-21.23L746.69-21.23L746.69-21.23Q746.92-23.32 747.16-24.94L747.16-24.94L774.07-31.55L774.07-31.55Q773.95-34.92 773.84-37.76L773.84-37.76L773.84-37.76Q773.72-40.60 773.60-42.57L773.60-42.57L773.60-42.57Q773.37-44.89 773.26-46.75L773.26-46.75L773.26-46.75Q772.91-46.86 772.21-46.98L772.21-46.98L772.21-46.98Q771.63-47.10 770.47-47.21L770.47-47.21L770.47-47.21Q769.31-47.33 767.69-47.33L767.69-47.33L767.69-47.33Q766.64-47.33 765.72-47.27L765.72-47.27L765.72-47.27Q764.79-47.21 763.86-47.10L763.86-47.10L763.86-47.10Q763.51-45.47 762.70-43.21L762.70-43.21L762.70-43.21Q761.89-40.95 760.15-38.92L760.15-38.92L760.15-38.92Q758.41-36.89 755.57-35.44L755.57-35.44L755.57-35.44Q752.72-33.99 748.32-33.99L748.32-33.99L748.32-51.50L748.32-51.50Q752.03-51.85 755.86-52.20L755.86-52.20L755.86-52.20Q759.22-52.43 763.05-52.66L763.05-52.66L763.05-52.66Q766.88-52.90 770.47-52.90L770.47-52.90L770.47-52.90Q778.01-52.90 782.36-51.62L782.36-51.62L782.36-51.62Q786.71-50.34 788.97-47.21L788.97-47.21L788.97-47.21Q791.24-44.08 791.87-38.86L791.87-38.86L791.87-38.86Q792.51-33.64 792.51-25.87L792.51-25.87ZM765.60-5.34L765.60-5.34L765.60-5.34Q767.92-5.92 770.07-8.29L770.07-8.29L770.07-8.29Q772.21-10.67 774.18-14.04L774.18-14.04L774.18-26.33L765.37-23.90L765.37-23.90Q765.14-22.04 765.02-20.13L765.02-20.13L765.02-20.13Q764.90-18.21 764.90-16.36L764.90-16.36L764.90-16.36Q764.90-14.04 764.96-12.06L764.96-12.06L764.96-12.06Q765.02-10.09 765.25-8.58L765.25-8.58L765.25-8.58Q765.37-6.84 765.60-5.34ZM803.88-45.36L803.88-51.16L810.72-51.16L829.05-53.94L829.05-5.92L835.90-5.92L835.90 0L803.88 0L803.88-5.92L810.72-5.92L810.72-45.36L803.88-45.36ZM810.72-69.25L810.72-69.25L810.72-69.25Q810.72-74.12 812.81-76.50L812.81-76.50L812.81-76.50Q814.90-78.88 819.89-78.88L819.89-78.88L819.89-78.88Q825.11-78.88 827.08-76.50L827.08-76.50L827.08-76.50Q829.05-74.12 829.05-69.25L829.05-69.25L829.05-69.25Q829.05-64.26 826.91-62.00L826.91-62.00L826.91-62.00Q824.76-59.74 819.89-59.74L819.89-59.74L819.89-59.74Q814.90-59.74 812.81-62.00L812.81-62.00L812.81-62.00Q810.72-64.26 810.72-69.25ZM841.70-44.20L841.70-50.00L848.54-50.00L866.06-53.36L866.06-45.94L866.06-45.94Q866.17-46.28 866.93-47.39L866.93-47.39L866.93-47.39Q867.68-48.49 869.36-49.71L869.36-49.71L869.36-49.71Q871.04-50.92 873.77-51.91L873.77-51.91L873.77-51.91Q876.50-52.90 880.67-52.90L880.67-52.90L880.67-52.90Q883.22-52.90 884.67-52.78L884.67-52.78L884.67-52.78Q886.12-52.66 886.94-52.55L886.94-52.55L886.94-52.55Q887.86-52.43 888.10-52.32L888.10-52.32L888.10-29.93L888.10-29.93Q883.92-29.93 881.14-31.55L881.14-31.55L881.14-31.55Q878.35-33.18 876.61-35.61L876.61-35.61L876.61-35.61Q874.87-38.05 873.94-40.72L873.94-40.72L873.94-40.72Q873.02-43.38 872.67-45.47L872.67-45.47L872.67-45.47Q871.62-44.89 870.70-43.91L870.70-43.91L870.70-43.91Q869.77-42.92 869.01-41.82L869.01-41.82L869.01-41.82Q868.26-40.72 867.68-39.73L867.68-39.73L867.68-39.73Q867.10-38.74 866.87-38.16L866.87-38.16L866.87-5.92L873.71-5.92L873.71 0L841.70 0L841.70-5.92L848.54-5.92L848.54-44.20L841.70-44.20ZM920.23-52.90L920.23-52.90L920.23-52.90Q926.61-52.90 930.78-51.68L930.78-51.68L930.78-51.68Q934.96-50.46 937.51-47.79L937.51-47.79L937.51-47.79Q940.06-45.12 941.11-40.77L941.11-40.77L941.11-40.77Q942.15-36.42 942.15-30.04L942.15-30.04L942.15-30.04Q942.15-28.07 942.04-26.62L942.04-26.62L942.04-26.62Q941.92-25.17 941.80-24.24L941.80-24.24L941.80-24.24Q941.69-23.08 941.57-22.50L941.57-22.50L912.92-22.50L912.92-22.50Q913.04-18.56 913.38-15.37L913.38-15.37L913.38-15.37Q913.73-12.18 914.08-9.86L914.08-9.86L914.08-9.86Q914.54-7.08 915.01-4.99L915.01-4.99L915.01-4.99Q915.36-4.76 916.05-4.64L916.05-4.64L916.05-4.64Q916.63-4.52 917.73-4.47L917.73-4.47L917.73-4.47Q918.84-4.41 920.58-4.41L920.58-4.41L920.58-4.41Q923.48-4.41 926.09-4.81L926.09-4.81L926.09-4.81Q928.70-5.22 930.67-6.15L930.67-6.15L930.67-6.15Q932.64-7.08 933.74-8.76L933.74-8.76L933.74-8.76Q934.84-10.44 934.84-12.88L934.84-12.88L941.11-12.88L941.11-12.88Q941.11-8.00 938.96-5.22L938.96-5.22L938.96-5.22Q936.82-2.44 933.63-0.99L933.63-0.99L933.63-0.99Q930.44 0.46 926.72 0.81L926.72 0.81L926.72 0.81Q923.01 1.16 919.76 1.16L919.76 1.16L919.76 1.16Q912.69 1.16 907.76-0.29L907.76-0.29L907.76-0.29Q902.83-1.74 899.75-4.93L899.75-4.93L899.75-4.93Q896.68-8.12 895.29-13.28L895.29-13.28L895.29-13.28Q893.90-18.44 893.90-25.87L893.90-25.87L893.90-25.87Q893.90-33.29 895.11-38.45L895.11-38.45L895.11-38.45Q896.33-43.62 899.35-46.81L899.35-46.81L899.35-46.81Q902.36-50.00 907.41-51.45L907.41-51.45L907.41-51.45Q912.46-52.90 920.23-52.90ZM915.01-46.98L915.01-46.98L915.01-46.98Q914.43-44.43 913.96-41.41L913.96-41.41L913.96-41.41Q913.62-38.74 913.27-35.21L913.27-35.21L913.27-35.21Q912.92-31.67 912.92-27.49L912.92-27.49L924.17-27.49L924.17-27.49Q923.94-32.36 923.59-36.02L923.59-36.02L923.59-36.02Q923.24-39.67 922.78-42.11L922.78-42.11L922.78-42.11Q922.32-45.01 921.74-46.98L921.74-46.98L921.74-46.98Q921.39-47.10 920.92-47.33L920.92-47.33L920.92-47.33Q920.46-47.44 919.82-47.56L919.82-47.56L919.82-47.56Q919.18-47.68 918.37-47.68L918.37-47.68L918.37-47.68Q917.56-47.68 916.98-47.56L916.98-47.56L916.98-47.56Q916.40-47.44 915.94-47.33L915.94-47.33L915.94-47.33Q915.47-47.10 915.01-46.98Z" fill="rgba(99.52380952380952%,92.02760107816712%,5.821203953279413%,0.797)"></path></g></g><style>text {
  font-size: 64px;
  font-family: Arial Black;
  dominant-baseline: central;
  text-anchor: middle;
}</style></svg>