<svg width="383.375px" height="104.022265625px" xmlns="http://www.w3.org/2000/svg" viewBox="58.3125 22.9888671875 383.375 104.022265625" style="background: rgb(36, 112, 36);" preserveAspectRatio="xMidYMid"><defs><filter id="editing-cake" x="-100%" y="-100%" width="300%" height="300%"><feFlood flood-color="#000000" result="flood-shadow"></feFlood><feFlood flood-color="#1f2100"></feFlood><feComposite operator="in" in2="SourceAlpha"></feComposite><feConvolveMatrix order="7,10" divisor="1" result="conv" kernelMatrix="0 0 0 1 0 0 0 0 0 1 0 1 0 0 0 0 1 0 1 0 0 0 1 0 0 0 1 0 0 1 0 0 0 1 0 0 1 0 0 0 1 0 1 0 0 0 0 0 1 1 0 0 0 0 0 1 0 1 1 0 1 1 0 0 0 0 1 0 0 0 "></feConvolveMatrix><feGaussianBlur stdDeviation="0.5"></feGaussianBlur><feOffset dy="4" result="offset"></feOffset><feComposite operator="in" in="flood-shadow" in2="offset"></feComposite><feGaussianBlur stdDeviation="4"></feGaussianBlur><feComponentTransfer><feFuncA type="linear" slope="0.7" intercept="-0.2"></feFuncA></feComponentTransfer><feOffset dy="4" result="shadow"></feOffset><feGaussianBlur in="SourceGraphic" stdDeviation="0.5"></feGaussianBlur><feOffset dy="0" result="x0"></feOffset><feGaussianBlur in="SourceGraphic" stdDeviation="1"></feGaussianBlur><feComponentTransfer><feFuncA type="linear" slope="0.8" intercept="-.01"></feFuncA></feComponentTransfer><feOffset dy="1" result="x1"></feOffset><feGaussianBlur in="SourceGraphic" stdDeviation="2"></feGaussianBlur><feComponentTransfer><feFuncA type="linear" slope="0.7" intercept="-.01"></feFuncA></feComponentTransfer><feOffset dy="2" result="x2"></feOffset><feGaussianBlur in="SourceGraphic" stdDeviation="3"></feGaussianBlur><feComponentTransfer><feFuncA type="linear" slope="0.6" intercept="-.01"></feFuncA></feComponentTransfer><feOffset dy="3" result="x3"></feOffset><feMerge><feMergeNode in="shadow"></feMergeNode><feMergeNode in="offset"></feMergeNode><feMergeNode in="x3"></feMergeNode><feMergeNode in="x2"></feMergeNode><feMergeNode in="x1"></feMergeNode><feMergeNode in="x0"></feMergeNode></feMerge></filter></defs><g filter="url(#editing-cake)"><g transform="translate(116.68500852584839, 94.46999931335449)"><path d="M1.48-36.29L10.50-36.29L29.74-16.82L29.74-32.86L24.49-32.86L24.49-36.29L38.70-36.29L38.70-32.86L33.45-32.86L33.45 0L31.62 0L10.44-22.30L10.44-3.42L15.69-3.42L15.69 0L1.48 0L1.48-3.42L6.73-3.42L6.73-32.86L1.48-32.86L1.48-36.29ZM53.28-26.90L53.28-26.90L53.28-26.90Q56.52-26.90 58.65-26.28L58.65-26.28L58.65-26.28Q60.77-25.67 62.07-24.31L62.07-24.31L62.07-24.31Q63.37-22.95 63.90-20.74L63.90-20.74L63.90-20.74Q64.43-18.53 64.43-15.28L64.43-15.28L64.43-15.28Q64.43-14.28 64.37-13.54L64.37-13.54L64.37-13.54Q64.31-12.80 64.25-12.33L64.25-12.33L64.25-12.33Q64.19-11.74 64.13-11.45L64.13-11.45L49.56-11.45L49.56-11.45Q49.62-9.44 49.80-7.82L49.80-7.82L49.80-7.82Q49.97-6.20 50.15-5.02L50.15-5.02L50.15-5.02Q50.39-3.60 50.62-2.54L50.62-2.54L50.62-2.54Q50.80-2.42 51.15-2.36L51.15-2.36L51.15-2.36Q51.45-2.30 52.01-2.27L52.01-2.27L52.01-2.27Q52.57-2.24 53.45-2.24L53.45-2.24L53.45-2.24Q54.93-2.24 56.26-2.45L56.26-2.45L56.26-2.45Q57.58-2.66 58.59-3.13L58.59-3.13L58.59-3.13Q59.59-3.60 60.15-4.45L60.15-4.45L60.15-4.45Q60.71-5.31 60.71-6.55L60.71-6.55L63.90-6.55L63.90-6.55Q63.90-4.07 62.81-2.66L62.81-2.66L62.81-2.66Q61.71-1.24 60.09-0.50L60.09-0.50L60.09-0.50Q58.47 0.24 56.58 0.41L56.58 0.41L56.58 0.41Q54.69 0.59 53.04 0.59L53.04 0.59L53.04 0.59Q49.44 0.59 46.93-0.15L46.93-0.15L46.93-0.15Q44.43-0.89 42.86-2.51L42.86-2.51L42.86-2.51Q41.30-4.13 40.59-6.76L40.59-6.76L40.59-6.76Q39.88-9.38 39.88-13.16L39.88-13.16L39.88-13.16Q39.88-16.93 40.50-19.56L40.50-19.56L40.50-19.56Q41.12-22.18 42.66-23.81L42.66-23.81L42.66-23.81Q44.19-25.43 46.76-26.17L46.76-26.17L46.76-26.17Q49.32-26.90 53.28-26.90ZM50.62-23.90L50.62-23.90L50.62-23.90Q50.33-22.60 50.09-21.06L50.09-21.06L50.09-21.06Q49.91-19.71 49.74-17.91L49.74-17.91L49.74-17.91Q49.56-16.11 49.56-13.98L49.56-13.98L55.28-13.98L55.28-13.98Q55.17-16.46 54.99-18.32L54.99-18.32L54.99-18.32Q54.81-20.18 54.58-21.42L54.58-21.42L54.58-21.42Q54.34-22.89 54.04-23.90L54.04-23.90L54.04-23.90Q53.87-23.95 53.63-24.07L53.63-24.07L53.63-24.07Q53.40-24.13 53.07-24.19L53.07-24.19L53.07-24.19Q52.75-24.25 52.33-24.25L52.33-24.25L52.33-24.25Q51.92-24.25 51.63-24.19L51.63-24.19L51.63-24.19Q51.33-24.13 51.09-24.07L51.09-24.07L51.09-24.07Q50.86-23.95 50.62-23.90ZM65.02-23.48L65.02-26.49L76.82-26.49L83.66-12.04L86.73-18.29L83.37-25.31L83.37-26.49L92.04-26.49L98.71-11.80L102.48-23.48L98.12-23.48L98.12-26.49L109.80-26.49L109.80-23.48L106.08-23.48L97.59 1.77L96.35 1.77L88.74-14.10L81.07 1.77L79.83 1.77L68.03-23.48L65.02-23.48ZM153.81-36.29L153.81-24.25L153.81-24.25Q150.27-24.25 148.18-25.58L148.18-25.58L148.18-25.58Q146.08-26.90 144.93-28.62L144.93-28.62L144.93-28.62Q143.78-30.33 143.43-31.92L143.43-31.92L143.43-31.92Q143.07-33.51 143.02-34.10L143.02-34.10L143.02-34.10Q141.90-34.22 140.83-34.22L140.83-34.22L138.94-34.22L138.94-34.22Q137.76-34.22 136.88-34.13L136.88-34.13L136.88-34.13Q136.00-34.04 135.35-33.93L135.35-33.93L135.35-33.93Q134.64-33.81 134.05-33.69L134.05-33.69L134.05-33.69Q133.52-31.62 133.16-29.15L133.16-29.15L133.16-29.15Q132.87-27.02 132.60-24.19L132.60-24.19L132.60-24.19Q132.34-21.36 132.34-18.17L132.34-18.17L132.34-18.17Q132.34-14.93 132.60-12.12L132.60-12.12L132.60-12.12Q132.87-9.32 133.16-7.20L133.16-7.20L133.16-7.20Q133.52-4.72 134.05-2.60L134.05-2.60L134.05-2.60Q134.70-2.42 135.46-2.30L135.46-2.30L135.46-2.30Q136.11-2.18 137.00-2.12L137.00-2.12L137.00-2.12Q137.88-2.06 138.94-2.06L138.94-2.06L138.94-2.06Q140.13-2.06 141.60-2.30L141.60-2.30L141.60-2.30Q143.07-2.54 144.49-3.13L144.49-3.13L144.49-14.28L141.07-14.28L141.07-17.70L154.40-17.70L154.40-0.24L147.38-1.00L147.38-1.00Q145.32 0 143.05 0.44L143.05 0.44L143.05 0.44Q140.77 0.89 138.94 0.89L138.94 0.89L138.94 0.89Q134.34 0.89 131.01-0.15L131.01-0.15L131.01-0.15Q127.68-1.18 125.52-3.48L125.52-3.48L125.52-3.48Q123.37-5.78 122.34-9.41L122.34-9.41L122.34-9.41Q121.30-13.04 121.30-18.17L121.30-18.17L121.30-18.17Q121.30-23.31 122.34-26.90L122.34-26.90L122.34-26.90Q123.37-30.50 125.52-32.80L125.52-32.80L125.52-32.80Q127.68-35.11 131.01-36.14L131.01-36.14L131.01-36.14Q134.34-37.17 138.94-37.17L138.94-37.17L138.94-37.17Q140.95-37.17 143.52-37.02L143.52-37.02L143.52-37.02Q146.08-36.88 148.38-36.70L148.38-36.70L148.38-36.70Q151.10-36.46 153.81-36.29L153.81-36.29ZM184.08-13.16L184.08-2.95L184.85-2.95L184.85-2.95Q185.38-2.95 185.91-3.01L185.91-3.01L187.21-3.13L187.21-0.30L187.21-0.30Q186.15-0.12 185.14 0L185.14 0L185.14 0Q184.32 0.12 183.37 0.18L183.37 0.18L183.37 0.18Q182.43 0.24 181.84 0.24L181.84 0.24L181.84 0.24Q178.95 0.24 177.47-0.83L177.47-0.83L177.47-0.83Q176.00-1.89 175.35-3.13L175.35-3.13L175.35-3.13Q174.05-1.48 172.37-0.50L172.37-0.50L172.37-0.50Q170.69 0.47 168.50 0.47L168.50 0.47L168.50 0.47Q164.49 0.47 162.54-1.03L162.54-1.03L162.54-1.03Q160.60-2.54 160.60-6.25L160.60-6.25L160.60-6.25Q160.60-7.55 160.63-8.73L160.63-8.73L160.63-8.73Q160.66-9.91 160.78-10.80L160.78-10.80L160.78-10.80Q160.89-11.86 161.01-12.69L161.01-12.69L174.70-16.05L174.70-16.05Q174.64-17.76 174.58-19.20L174.58-19.20L174.58-19.20Q174.52-20.65 174.46-21.65L174.46-21.65L174.46-21.65Q174.34-22.83 174.29-23.78L174.29-23.78L174.29-23.78Q174.11-23.84 173.75-23.90L173.75-23.90L173.75-23.90Q173.46-23.95 172.87-24.01L172.87-24.01L172.87-24.01Q172.28-24.07 171.45-24.07L171.45-24.07L171.45-24.07Q170.92-24.07 170.45-24.04L170.45-24.04L170.45-24.04Q169.98-24.01 169.51-23.95L169.51-23.95L169.51-23.95Q169.33-23.13 168.92-21.98L168.92-21.98L168.92-21.98Q168.50-20.83 167.62-19.79L167.62-19.79L167.62-19.79Q166.73-18.76 165.29-18.02L165.29-18.02L165.29-18.02Q163.84-17.29 161.60-17.29L161.60-17.29L161.60-26.20L161.60-26.20Q163.49-26.37 165.44-26.55L165.44-26.55L165.44-26.55Q167.15-26.67 169.09-26.79L169.09-26.79L169.09-26.79Q171.04-26.90 172.87-26.90L172.87-26.90L172.87-26.90Q176.70-26.90 178.92-26.26L178.92-26.26L178.92-26.26Q181.13-25.61 182.28-24.01L182.28-24.01L182.28-24.01Q183.43-22.42 183.76-19.77L183.76-19.77L183.76-19.77Q184.08-17.11 184.08-13.16L184.08-13.16ZM170.39-2.71L170.39-2.71L170.39-2.71Q171.57-3.01 172.66-4.22L172.66-4.22L172.66-4.22Q173.75-5.43 174.76-7.14L174.76-7.14L174.76-13.39L170.27-12.15L170.27-12.15Q170.16-11.21 170.10-10.24L170.10-10.24L170.10-10.24Q170.04-9.26 170.04-8.32L170.04-8.32L170.04-8.32Q170.04-7.14 170.07-6.14L170.07-6.14L170.07-6.14Q170.10-5.13 170.22-4.37L170.22-4.37L170.22-4.37Q170.27-3.48 170.39-2.71ZM189.86-22.48L189.86-25.43L193.34-25.43L202.25-27.14L202.25-23.19L202.25-23.19Q202.49-23.54 203.11-24.19L203.11-24.19L203.11-24.19Q203.73-24.84 204.73-25.43L204.73-25.43L204.73-25.43Q205.73-26.02 207.18-26.46L207.18-26.46L207.18-26.46Q208.62-26.90 210.57-26.90L210.57-26.90L210.57-26.90Q211.69-26.90 212.87-26.73L212.87-26.73L212.87-26.73Q214.05-26.55 215.08-26.14L215.08-26.14L215.08-26.14Q216.12-25.72 216.94-25.02L216.94-25.02L216.94-25.02Q217.77-24.31 218.12-23.19L218.12-23.19L218.12-23.19Q218.30-23.42 218.83-24.04L218.83-24.04L218.83-24.04Q219.36-24.66 220.34-25.31L220.34-25.31L220.34-25.31Q221.31-25.96 222.78-26.43L222.78-26.43L222.78-26.43Q224.26-26.90 226.32-26.90L226.32-26.90L226.32-26.90Q227.68-26.90 229.07-26.67L229.07-26.67L229.07-26.67Q230.45-26.43 231.60-25.81L231.60-25.81L231.60-25.81Q232.75-25.19 233.46-24.13L233.46-24.13L233.46-24.13Q234.17-23.07 234.17-21.36L234.17-21.36L234.17-3.01L237.65-3.01L237.65 0L224.85 0L224.85-23.25L224.67-23.31L224.67-23.31Q224.55-23.36 224.32-23.39L224.32-23.39L224.32-23.39Q224.08-23.42 223.61-23.42L223.61-23.42L223.61-23.42Q222.61-23.42 221.75-22.89L221.75-22.89L221.75-22.89Q220.90-22.36 220.22-21.68L220.22-21.68L220.22-21.68Q219.54-21.00 219.07-20.33L219.07-20.33L219.07-20.33Q218.59-19.65 218.42-19.35L218.42-19.35L218.42-3.01L221.90-3.01L221.90 0L209.10 0L209.10-23.25L208.92-23.31L208.92-23.31Q208.80-23.36 208.56-23.39L208.56-23.39L208.56-23.39Q208.33-23.42 207.86-23.42L207.86-23.42L207.86-23.42Q206.85-23.42 206.00-22.89L206.00-22.89L206.00-22.89Q205.14-22.36 204.46-21.68L204.46-21.68L204.46-21.68Q203.79-21.00 203.31-20.33L203.31-20.33L203.31-20.33Q202.84-19.65 202.66-19.35L202.66-19.35L202.66-3.01L206.15-3.01L206.15 0L189.86 0L189.86-3.01L193.34-3.01L193.34-22.48L189.86-22.48ZM253.99-26.90L253.99-26.90L253.99-26.90Q257.24-26.90 259.36-26.28L259.36-26.28L259.36-26.28Q261.49-25.67 262.79-24.31L262.79-24.31L262.79-24.31Q264.08-22.95 264.62-20.74L264.62-20.74L264.62-20.74Q265.15-18.53 265.15-15.28L265.15-15.28L265.15-15.28Q265.15-14.28 265.09-13.54L265.09-13.54L265.09-13.54Q265.03-12.80 264.97-12.33L264.97-12.33L264.97-12.33Q264.91-11.74 264.85-11.45L264.85-11.45L250.28-11.45L250.28-11.45Q250.34-9.44 250.51-7.82L250.51-7.82L250.51-7.82Q250.69-6.20 250.87-5.02L250.87-5.02L250.87-5.02Q251.10-3.60 251.34-2.54L251.34-2.54L251.34-2.54Q251.52-2.42 251.87-2.36L251.87-2.36L251.87-2.36Q252.17-2.30 252.73-2.27L252.73-2.27L252.73-2.27Q253.29-2.24 254.17-2.24L254.17-2.24L254.17-2.24Q255.65-2.24 256.97-2.45L256.97-2.45L256.97-2.45Q258.30-2.66 259.30-3.13L259.30-3.13L259.30-3.13Q260.31-3.60 260.87-4.45L260.87-4.45L260.87-4.45Q261.43-5.31 261.43-6.55L261.43-6.55L264.62-6.55L264.62-6.55Q264.62-4.07 263.52-2.66L263.52-2.66L263.52-2.66Q262.43-1.24 260.81-0.50L260.81-0.50L260.81-0.50Q259.19 0.24 257.30 0.41L257.30 0.41L257.30 0.41Q255.41 0.59 253.76 0.59L253.76 0.59L253.76 0.59Q250.16 0.59 247.65-0.15L247.65-0.15L247.65-0.15Q245.14-0.89 243.58-2.51L243.58-2.51L243.58-2.51Q242.02-4.13 241.31-6.76L241.31-6.76L241.31-6.76Q240.60-9.38 240.60-13.16L240.60-13.16L240.60-13.16Q240.60-16.93 241.22-19.56L241.22-19.56L241.22-19.56Q241.84-22.18 243.37-23.81L243.37-23.81L243.37-23.81Q244.91-25.43 247.48-26.17L247.48-26.17L247.48-26.17Q250.04-26.90 253.99-26.90ZM251.34-23.90L251.34-23.90L251.34-23.90Q251.04-22.60 250.81-21.06L250.81-21.06L250.81-21.06Q250.63-19.71 250.45-17.91L250.45-17.91L250.45-17.91Q250.28-16.11 250.28-13.98L250.28-13.98L256.00-13.98L256.00-13.98Q255.88-16.46 255.71-18.32L255.71-18.32L255.71-18.32Q255.53-20.18 255.29-21.42L255.29-21.42L255.29-21.42Q255.06-22.89 254.76-23.90L254.76-23.90L254.76-23.90Q254.58-23.95 254.35-24.07L254.35-24.07L254.35-24.07Q254.11-24.13 253.79-24.19L253.79-24.19L253.79-24.19Q253.46-24.25 253.05-24.25L253.05-24.25L253.05-24.25Q252.64-24.25 252.34-24.19L252.34-24.19L252.34-24.19Q252.05-24.13 251.81-24.07L251.81-24.07L251.81-24.07Q251.58-23.95 251.34-23.90Z" fill="rgba(99.52380952380952%,92.02760107816712%,5.821203953279413%,0.797)"></path></g></g><style>text {
  font-size: 64px;
  font-family: Arial Black;
  dominant-baseline: central;
  text-anchor: middle;
}</style></svg>