<svg width="782.5349609374999px" height="246.822265625px" xmlns="http://www.w3.org/2000/svg" viewBox="-141.26748046874997 -48.4111328125 782.5349609374999 246.822265625" style="background: rgb(36, 112, 36);" preserveAspectRatio="xMidYMid"><defs><filter id="editing-cake" x="-100%" y="-100%" width="300%" height="300%"><feFlood flood-color="#000000" result="flood-shadow"></feFlood><feFlood flood-color="#241e01"></feFlood><feComposite operator="in" in2="SourceAlpha"></feComposite><feConvolveMatrix order="7,10" divisor="1" result="conv" kernelMatrix="0 0 0 1 0 0 0 0 0 1 0 1 0 0 0 0 1 0 1 0 0 0 1 0 0 0 1 0 0 1 0 0 0 1 0 0 1 0 0 0 1 0 1 0 0 0 0 0 1 1 0 0 0 0 0 1 0 1 1 0 1 1 0 0 0 0 1 0 0 0 "></feConvolveMatrix><feGaussianBlur stdDeviation="0.5"></feGaussianBlur><feOffset dy="4" result="offset"></feOffset><feComposite operator="in" in="flood-shadow" in2="offset"></feComposite><feGaussianBlur stdDeviation="4"></feGaussianBlur><feComponentTransfer><feFuncA type="linear" slope="0.7" intercept="-0.2"></feFuncA></feComponentTransfer><feOffset dy="4" result="shadow"></feOffset><feGaussianBlur in="SourceGraphic" stdDeviation="0.5"></feGaussianBlur><feOffset dy="0" result="x0"></feOffset><feGaussianBlur in="SourceGraphic" stdDeviation="1"></feGaussianBlur><feComponentTransfer><feFuncA type="linear" slope="0.8" intercept="-.01"></feFuncA></feComponentTransfer><feOffset dy="1" result="x1"></feOffset><feGaussianBlur in="SourceGraphic" stdDeviation="2"></feGaussianBlur><feComponentTransfer><feFuncA type="linear" slope="0.7" intercept="-.01"></feFuncA></feComponentTransfer><feOffset dy="2" result="x2"></feOffset><feGaussianBlur in="SourceGraphic" stdDeviation="3"></feGaussianBlur><feComponentTransfer><feFuncA type="linear" slope="0.6" intercept="-.01"></feFuncA></feComponentTransfer><feOffset dy="3" result="x3"></feOffset><feMerge><feMergeNode in="shadow"></feMergeNode><feMergeNode in="offset"></feMergeNode><feMergeNode in="x3"></feMergeNode><feMergeNode in="x2"></feMergeNode><feMergeNode in="x1"></feMergeNode><feMergeNode in="x0"></feMergeNode></feMerge></filter></defs><g filter="url(#editing-cake)"><g transform="translate(-28.634992599487305, 128.625)"><path d="M16.02 0L24.31-42.04L24.31-42.04Q20.16-80.80 5.58-89.09L5.58-89.09L5.58-89.09Q8.58-92.81 13.44-94.88L13.44-94.88L13.44-94.88Q18.30-96.95 24.17-96.95L24.17-96.95L24.17-96.95Q30.03-96.95 34.46-94.88L34.46-94.88L34.46-94.88Q38.90-92.81 41.76-88.37L41.76-88.37L41.76-88.37Q47.19-79.94 47.19-59.77L47.19-59.77L47.19-49.48L47.19-49.48Q55.77-74.65 64.35-85.51L64.35-85.51L64.35-85.51Q73.07-96.67 83.94-96.67L83.94-96.67L83.94-96.67Q88.23-96.67 91.09-94.45L91.09-94.45L91.09-94.45Q93.95-92.24 95.38-88.95L95.38-88.95L95.38-88.95Q84.37-84.08 73.79-70.07L73.79-70.07L73.79-70.07Q63.21-56.06 56.34-36.47L56.34-36.47L47.91 0L16.02 0ZM111.83 2.86L111.83 2.86L111.83 2.86Q80.37 2.86 80.37-26.74L80.37-26.74L80.37-26.74Q80.37-47.76 91.95-61.35L91.95-61.35L91.95-61.35Q104.25-75.79 125.55-75.79L125.55-75.79L125.55-75.79Q141.00-75.79 148.86-68.64L148.86-68.64L148.86-68.64Q156.73-61.49 156.73-46.48L156.73-46.48L156.73-46.48Q156.73-23.60 144.43-10.30L144.43-10.30L144.43-10.30Q132.42 2.86 111.83 2.86ZM115.54-59.35L115.54-59.35L115.54-59.35Q113.83-55.48 112.47-49.69L112.47-49.69L112.47-49.69Q111.11-43.90 109.40-34.75L109.40-34.75L109.40-34.75Q107.68-25.60 107.68-14.30L107.68-14.30L107.68-14.30Q107.68-10.58 108.89-8.15L108.89-8.15L108.89-8.15Q110.11-5.72 113.40-5.72L113.40-5.72L113.40-5.72Q116.69-5.72 118.76-7.29L118.76-7.29L118.76-7.29Q120.84-8.87 122.41-12.58L122.41-12.58L122.41-12.58Q125.27-19.16 127.56-31.39L127.56-31.39L127.56-31.39Q129.84-43.62 130.06-48.91L130.06-48.91L130.06-48.91Q130.27-54.20 130.27-58.13L130.27-58.13L130.27-58.13Q130.27-62.06 129.13-64.64L129.13-64.64L129.13-64.64Q127.99-67.21 124.77-67.21L124.77-67.21L124.77-67.21Q121.55-67.21 119.41-65.21L119.41-65.21L119.41-65.21Q117.26-63.21 115.54-59.35ZM211.07-6.01L211.07-6.01L211.07-6.01Q204.20 2.86 187.19 2.86L187.19 2.86L187.19 2.86Q178.32 2.86 171.89-2.50L171.89-2.50L171.89-2.50Q165.45-7.87 165.45-15.59L165.45-15.59L165.45-15.59Q165.45-19.88 165.88-22.02L165.88-22.02L175.46-72.93L204.49-75.79L194.05-20.59L194.05-20.59Q193.48-17.45 193.48-15.59L193.48-15.59L193.48-15.59Q193.48-7.29 198.48-7.29L198.48-7.29L198.48-7.29Q204.06-7.29 208.06-14.87L208.06-14.87L208.06-14.87Q209.35-17.30 209.92-20.45L209.92-20.45L220.08-72.93L248.25-75.79L237.67-20.02L237.67-20.02Q237.24-17.88 237.24-15.59L237.24-15.59L237.24-15.59Q237.24-13.30 238.52-10.80L238.52-10.80L238.52-10.80Q239.81-8.29 243.96-7.72L243.96-7.72L243.96-7.72Q243.10-4.29 240.10-2.00L240.10-2.00L240.10-2.00Q233.81 2.86 227.01 2.86L227.01 2.86L227.01 2.86Q220.22 2.86 216.22 0.43L216.22 0.43L216.22 0.43Q212.21-2.00 211.07-6.01ZM289.00-88.66L289.00-88.66L289.00-88.66Q291.00-92.66 295.37-94.88L295.37-94.88L295.37-94.88Q299.73-97.10 305.73-97.10L305.73-97.10L305.73-97.10Q315.17-97.10 320.82-90.30L320.82-90.30L320.82-90.30Q326.47-83.51 326.47-68.64L326.47-68.64L326.47-17.59L359.22-94.24L376.09-94.24L379.95-21.88L379.52-17.73L413.56-94.24L433.15-94.24L387.39 0L356.93 0L354.07-43.47L335.19 0L300.73 0L296.44-68.64L296.44-68.64Q296.01-76.36 293.94-81.44L293.94-81.44L293.94-81.44Q291.86-86.52 289.00-88.66ZM461.32-7.87L461.32-7.87L461.32-7.87Q456.88 2.86 442.73 2.86L442.73 2.86L442.73 2.86Q435.44 2.86 430.86-2.15L430.86-2.15L430.86-2.15Q427.00-6.58 427.00-11.01L427.00-11.01L427.00-11.01Q427.00-22.59 432.29-45.19L432.29-45.19L437.58-72.93L466.61-75.79L457.89-30.60L457.89-30.60Q455.46-20.02 455.46-16.30L455.46-16.30L455.46-16.30Q455.46-8.15 461.32-7.87ZM440.15-92.81L440.15-92.81L440.15-92.81Q440.15-98.38 444.80-101.39L444.80-101.39L444.80-101.39Q449.45-104.39 456.17-104.39L456.17-104.39L456.17-104.39Q462.89-104.39 466.97-101.39L466.97-101.39L466.97-101.39Q471.04-98.38 471.04-92.81L471.04-92.81L471.04-92.81Q471.04-87.23 466.54-84.37L466.54-84.37L466.54-84.37Q462.03-81.51 455.31-81.51L455.31-81.51L455.31-81.51Q448.59-81.51 444.37-84.37L444.37-84.37L444.37-84.37Q440.15-87.23 440.15-92.81ZM533.96 2.86L533.96 2.86L533.96 2.86Q516.66 2.86 516.66-10.58L516.66-10.58L516.66-10.58Q516.80-14.30 517.95-20.59L517.95-20.59L520.52-33.75L520.52-33.75Q524.38-52.34 524.38-56.49L524.38-56.49L524.38-56.49Q524.38-64.78 519.52-64.78L519.52-64.78L519.52-64.78Q511.37-64.78 507.08-43.47L507.08-43.47L498.64 0L469.90 2.86L484.77-73.07L508.22-75.79L505.93-61.78L505.93-61.78Q512.66-75.79 533.25-75.79L533.25-75.79L533.25-75.79Q543.26-75.79 547.48-71.57L547.48-71.57L547.48-71.57Q551.69-67.35 551.69-57.92L551.69-57.92L551.69-57.92Q551.69-49.05 547.12-28.31L547.12-28.31L547.12-28.31Q544.97-19.02 544.97-15.52L544.97-15.52L544.97-15.52Q544.97-12.01 546.90-10.01L546.90-10.01L546.90-10.01Q548.83-8.01 551.69-7.72L551.69-7.72L551.69-7.72Q550.26-2.86 545.33 0L545.33 0L545.33 0Q540.40 2.86 533.96 2.86Z" fill="rgba(100%,84.70588235294116%,0%,0.462)"></path></g></g><style>text {
  font-size: 64px;
  font-family: Arial Black;
  dominant-baseline: central;
  text-anchor: middle;
}</style></svg>